<?xml version="1.0" encoding="UTF-8" standalone="no"?>
<!DOCTYPE svg PUBLIC "-//W3C//DTD SVG 1.1//EN"
 "http://www.w3.org/Graphics/SVG/1.1/DTD/svg11.dtd">
<!-- Generated by graphviz version 12.1.2 (20240928.0832)
 -->
<!-- Title: dependency&#45;cruiser output Pages: 1 -->
<svg width="742pt" height="932pt"
 viewBox="0.00 0.00 742.00 931.69" xmlns="http://www.w3.org/2000/svg" xmlns:xlink="http://www.w3.org/1999/xlink">
<g id="graph0" class="graph" transform="scale(1 1) rotate(0) translate(4 927.69)">
<title>dependency&#45;cruiser output</title>
<polygon fill="white" stroke="none" points="-4,4 -4,-927.69 738,-927.69 738,4 -4,4"/>
<g id="clust1" class="cluster">
<title>cluster_src</title>
<path fill="#ffffff" stroke="black" stroke-width="2" d="M20,-37.69C20,-37.69 714,-37.69 714,-37.69 720,-37.69 726,-43.69 726,-49.69 726,-49.69 726,-903.69 726,-903.69 726,-909.69 720,-915.69 714,-915.69 714,-915.69 20,-915.69 20,-915.69 14,-915.69 8,-909.69 8,-903.69 8,-903.69 8,-49.69 8,-49.69 8,-43.69 14,-37.69 20,-37.69"/>
<text text-anchor="middle" x="367" y="-903.14" font-family="Helvetica,sans-Serif" font-weight="bold" font-size="9.00">src</text>
</g>
<g id="clust2" class="cluster">
<title>cluster_src/components</title>
<path fill="#ffffff" stroke="black" stroke-width="2" d="M227,-231.69C227,-231.69 593.75,-231.69 593.75,-231.69 599.75,-231.69 605.75,-237.69 605.75,-243.69 605.75,-243.69 605.75,-717.69 605.75,-717.69 605.75,-723.69 599.75,-729.69 593.75,-729.69 593.75,-729.69 227,-729.69 227,-729.69 221,-729.69 215,-723.69 215,-717.69 215,-717.69 215,-243.69 215,-243.69 215,-237.69 221,-231.69 227,-231.69"/>
<text text-anchor="middle" x="410.38" y="-717.14" font-family="Helvetica,sans-Serif" font-weight="bold" font-size="9.00">components</text>
</g>
<g id="clust3" class="cluster">
<title>cluster_src/components/authentication</title>
<path fill="#ffffff" stroke="black" stroke-width="2" d="M239.5,-591.69C239.5,-591.69 325.5,-591.69 325.5,-591.69 331.5,-591.69 337.5,-597.69 337.5,-603.69 337.5,-603.69 337.5,-691.69 337.5,-691.69 337.5,-697.69 331.5,-703.69 325.5,-703.69 325.5,-703.69 239.5,-703.69 239.5,-703.69 233.5,-703.69 227.5,-697.69 227.5,-691.69 227.5,-691.69 227.5,-603.69 227.5,-603.69 227.5,-597.69 233.5,-591.69 239.5,-591.69"/>
<text text-anchor="middle" x="282.5" y="-691.14" font-family="Helvetica,sans-Serif" font-weight="bold" font-size="9.00">authentication</text>
</g>
<g id="clust4" class="cluster">
<title>cluster_src/components/navigation</title>
<path fill="#ffffff" stroke="black" stroke-width="2" d="M256.38,-325.69C256.38,-325.69 451,-325.69 451,-325.69 457,-325.69 463,-331.69 463,-337.69 463,-337.69 463,-365.69 463,-365.69 463,-371.69 457,-377.69 451,-377.69 451,-377.69 256.38,-377.69 256.38,-377.69 250.38,-377.69 244.38,-371.69 244.38,-365.69 244.38,-365.69 244.38,-337.69 244.38,-337.69 244.38,-331.69 250.38,-325.69 256.38,-325.69"/>
<text text-anchor="middle" x="353.69" y="-365.14" font-family="Helvetica,sans-Serif" font-weight="bold" font-size="9.00">navigation</text>
</g>
<g id="clust5" class="cluster">
<title>cluster_src/components/news</title>
<path fill="#ffffff" stroke="black" stroke-width="2" d="M358.25,-565.69C358.25,-565.69 585.75,-565.69 585.75,-565.69 591.75,-565.69 597.75,-571.69 597.75,-577.69 597.75,-577.69 597.75,-635.69 597.75,-635.69 597.75,-641.69 591.75,-647.69 585.75,-647.69 585.75,-647.69 358.25,-647.69 358.25,-647.69 352.25,-647.69 346.25,-641.69 346.25,-635.69 346.25,-635.69 346.25,-577.69 346.25,-577.69 346.25,-571.69 352.25,-565.69 358.25,-565.69"/>
<text text-anchor="middle" x="472" y="-635.14" font-family="Helvetica,sans-Serif" font-weight="bold" font-size="9.00">news</text>
</g>
<g id="clust6" class="cluster">
<title>cluster_src/components/relationship</title>
<path fill="#ffffff" stroke="black" stroke-width="2" d="M238.75,-265.69C238.75,-265.69 326.25,-265.69 326.25,-265.69 332.25,-265.69 338.25,-271.69 338.25,-277.69 338.25,-277.69 338.25,-305.69 338.25,-305.69 338.25,-311.69 332.25,-317.69 326.25,-317.69 326.25,-317.69 238.75,-317.69 238.75,-317.69 232.75,-317.69 226.75,-311.69 226.75,-305.69 226.75,-305.69 226.75,-277.69 226.75,-277.69 226.75,-271.69 232.75,-265.69 238.75,-265.69"/>
<text text-anchor="middle" x="282.5" y="-305.14" font-family="Helvetica,sans-Serif" font-weight="bold" font-size="9.00">relationship</text>
</g>
<g id="clust7" class="cluster">
<title>cluster_src/components/user</title>
<path fill="#ffffff" stroke="black" stroke-width="2" d="M235,-385.69C235,-385.69 459.62,-385.69 459.62,-385.69 465.62,-385.69 471.62,-391.69 471.62,-397.69 471.62,-397.69 471.62,-545.69 471.62,-545.69 471.62,-551.69 465.62,-557.69 459.62,-557.69 459.62,-557.69 235,-557.69 235,-557.69 229,-557.69 223,-551.69 223,-545.69 223,-545.69 223,-397.69 223,-397.69 223,-391.69 229,-385.69 235,-385.69"/>
<text text-anchor="middle" x="347.31" y="-545.14" font-family="Helvetica,sans-Serif" font-weight="bold" font-size="9.00">user</text>
</g>
<g id="clust8" class="cluster">
<title>cluster_src/configuration</title>
<path fill="#ffffff" stroke="black" stroke-width="2" d="M635.75,-171.69C635.75,-171.69 706,-171.69 706,-171.69 712,-171.69 718,-177.69 718,-183.69 718,-183.69 718,-211.69 718,-211.69 718,-217.69 712,-223.69 706,-223.69 706,-223.69 635.75,-223.69 635.75,-223.69 629.75,-223.69 623.75,-217.69 623.75,-211.69 623.75,-211.69 623.75,-183.69 623.75,-183.69 623.75,-177.69 629.75,-171.69 635.75,-171.69"/>
<text text-anchor="middle" x="670.88" y="-211.14" font-family="Helvetica,sans-Serif" font-weight="bold" font-size="9.00">configuration</text>
</g>
<g id="clust9" class="cluster">
<title>cluster_src/hooks</title>
<path fill="#ffffff" stroke="black" stroke-width="2" d="M502.75,-111.69C502.75,-111.69 603.75,-111.69 603.75,-111.69 609.75,-111.69 615.75,-117.69 615.75,-123.69 615.75,-123.69 615.75,-211.69 615.75,-211.69 615.75,-217.69 609.75,-223.69 603.75,-223.69 603.75,-223.69 502.75,-223.69 502.75,-223.69 496.75,-223.69 490.75,-217.69 490.75,-211.69 490.75,-211.69 490.75,-123.69 490.75,-123.69 490.75,-117.69 496.75,-111.69 502.75,-111.69"/>
<text text-anchor="middle" x="553.25" y="-211.14" font-family="Helvetica,sans-Serif" font-weight="bold" font-size="9.00">hooks</text>
</g>
<g id="clust10" class="cluster">
<title>cluster_src/provider</title>
<path fill="#ffffff" stroke="black" stroke-width="2" d="M516.25,-737.69C516.25,-737.69 590.25,-737.69 590.25,-737.69 596.25,-737.69 602.25,-743.69 602.25,-749.69 602.25,-749.69 602.25,-777.69 602.25,-777.69 602.25,-783.69 596.25,-789.69 590.25,-789.69 590.25,-789.69 516.25,-789.69 516.25,-789.69 510.25,-789.69 504.25,-783.69 504.25,-777.69 504.25,-777.69 504.25,-749.69 504.25,-749.69 504.25,-743.69 510.25,-737.69 516.25,-737.69"/>
<text text-anchor="middle" x="553.25" y="-777.14" font-family="Helvetica,sans-Serif" font-weight="bold" font-size="9.00">provider</text>
</g>
<g id="clust11" class="cluster">
<title>cluster_src/routes</title>
<path fill="#ffffff" stroke="black" stroke-width="2" d="M157,-737.69C157,-737.69 325.12,-737.69 325.12,-737.69 331.12,-737.69 337.12,-743.69 337.12,-749.69 337.12,-749.69 337.12,-777.69 337.12,-777.69 337.12,-783.69 331.12,-789.69 325.12,-789.69 325.12,-789.69 157,-789.69 157,-789.69 151,-789.69 145,-783.69 145,-777.69 145,-777.69 145,-749.69 145,-749.69 145,-743.69 151,-737.69 157,-737.69"/>
<text text-anchor="middle" x="241.06" y="-777.14" font-family="Helvetica,sans-Serif" font-weight="bold" font-size="9.00">routes</text>
</g>
<g id="clust12" class="cluster">
<title>cluster_src/utils</title>
<path fill="#ffffff" stroke="black" stroke-width="2" d="M521.12,-807.69C521.12,-807.69 585.38,-807.69 585.38,-807.69 591.38,-807.69 597.38,-813.69 597.38,-819.69 597.38,-819.69 597.38,-877.69 597.38,-877.69 597.38,-883.69 591.38,-889.69 585.38,-889.69 585.38,-889.69 521.12,-889.69 521.12,-889.69 515.12,-889.69 509.12,-883.69 509.12,-877.69 509.12,-877.69 509.12,-819.69 509.12,-819.69 509.12,-813.69 515.12,-807.69 521.12,-807.69"/>
<text text-anchor="middle" x="553.25" y="-877.14" font-family="Helvetica,sans-Serif" font-weight="bold" font-size="9.00">utils</text>
</g>
<!-- src/App.tsx -->
<g id="node1" class="node">
<title>src/App.tsx</title>
<g id="a_node1"><a xlink:href="src/App.tsx" xlink:title="App.tsx">
<path fill="#bbfeff" stroke="black" d="M131.08,-763.57C131.08,-763.57 88.92,-763.57 88.92,-763.57 85.96,-763.57 83,-760.61 83,-757.65 83,-757.65 83,-751.73 83,-751.73 83,-748.77 85.96,-745.82 88.92,-745.82 88.92,-745.82 131.08,-745.82 131.08,-745.82 134.04,-745.82 137,-748.77 137,-751.73 137,-751.73 137,-757.65 137,-757.65 137,-760.61 134.04,-763.57 131.08,-763.57"/>
<text text-anchor="start" x="95" y="-751.02" font-family="Helvetica,sans-Serif" font-size="9.00">App.tsx</text>
</a>
</g>
</g>
<!-- src/components/GlobalMessage.tsx -->
<g id="node2" class="node">
<title>src/components/GlobalMessage.tsx</title>
<g id="a_node2"><a xlink:href="src/components/GlobalMessage.tsx" xlink:title="GlobalMessage.tsx">
<path fill="#bbfeff" stroke="black" d="M323.58,-257.57C323.58,-257.57 241.42,-257.57 241.42,-257.57 238.46,-257.57 235.5,-254.61 235.5,-251.65 235.5,-251.65 235.5,-245.73 235.5,-245.73 235.5,-242.77 238.46,-239.82 241.42,-239.82 241.42,-239.82 323.58,-239.82 323.58,-239.82 326.54,-239.82 329.5,-242.77 329.5,-245.73 329.5,-245.73 329.5,-251.65 329.5,-251.65 329.5,-254.61 326.54,-257.57 323.58,-257.57"/>
<text text-anchor="start" x="243.5" y="-245.02" font-family="Helvetica,sans-Serif" font-size="9.00">GlobalMessage.tsx</text>
</a>
</g>
</g>
<!-- src/App.tsx&#45;&gt;src/components/GlobalMessage.tsx -->
<g id="edge1" class="edge">
<title>src/App.tsx&#45;&gt;src/components/GlobalMessage.tsx</title>
<path fill="none" stroke="#000000" stroke-width="2" stroke-opacity="0.200000" d="M111.6,-745.63C115.8,-684.67 142.9,-334.74 215,-262.69 218.44,-259.25 222.5,-256.56 226.89,-254.46"/>
<polygon fill="#000000" fill-opacity="0.200000" stroke="#000000" stroke-width="2" stroke-opacity="0.200000" points="227.42,-256.5 232.26,-252.38 225.91,-252.59 227.42,-256.5"/>
</g>
<!-- src/provider/authProvider.tsx -->
<g id="node3" class="node">
<title>src/provider/authProvider.tsx</title>
<g id="a_node3"><a xlink:href="src/provider/authProvider.tsx" xlink:title="authProvider.tsx">
<path fill="#bbfeff" stroke="black" d="M588.33,-763.57C588.33,-763.57 518.17,-763.57 518.17,-763.57 515.21,-763.57 512.25,-760.61 512.25,-757.65 512.25,-757.65 512.25,-751.73 512.25,-751.73 512.25,-748.77 515.21,-745.82 518.17,-745.82 518.17,-745.82 588.33,-745.82 588.33,-745.82 591.29,-745.82 594.25,-748.77 594.25,-751.73 594.25,-751.73 594.25,-757.65 594.25,-757.65 594.25,-760.61 591.29,-763.57 588.33,-763.57"/>
<text text-anchor="start" x="520.25" y="-751.02" font-family="Helvetica,sans-Serif" font-size="9.00">authProvider.tsx</text>
</a>
</g>
</g>
<!-- src/App.tsx&#45;&gt;src/provider/authProvider.tsx -->
<g id="edge2" class="edge">
<title>src/App.tsx&#45;&gt;src/provider/authProvider.tsx</title>
<path fill="none" stroke="#000000" stroke-width="2" stroke-opacity="0.200000" d="M116.09,-763.93C121.77,-773.18 131.91,-786.84 145,-792.69 282.17,-854.02 335.84,-809.24 482.75,-777.69 495.13,-775.03 508.4,-770.96 519.99,-766.98"/>
<polygon fill="#000000" fill-opacity="0.200000" stroke="#000000" stroke-width="2" stroke-opacity="0.200000" points="520.67,-768.97 525.63,-764.98 519.27,-765.01 520.67,-768.97"/>
</g>
<!-- src/routes/index.tsx -->
<g id="node4" class="node">
<title>src/routes/index.tsx</title>
<g id="a_node4"><a xlink:href="src/routes/index.tsx" xlink:title="index.tsx">
<path fill="#bbfeff" stroke="black" d="M201.08,-763.57C201.08,-763.57 158.92,-763.57 158.92,-763.57 155.96,-763.57 153,-760.61 153,-757.65 153,-757.65 153,-751.73 153,-751.73 153,-748.77 155.96,-745.82 158.92,-745.82 158.92,-745.82 201.08,-745.82 201.08,-745.82 204.04,-745.82 207,-748.77 207,-751.73 207,-751.73 207,-757.65 207,-757.65 207,-760.61 204.04,-763.57 201.08,-763.57"/>
<text text-anchor="start" x="162" y="-751.02" font-family="Helvetica,sans-Serif" font-size="9.00">index.tsx</text>
</a>
</g>
</g>
<!-- src/App.tsx&#45;&gt;src/routes/index.tsx -->
<g id="edge3" class="edge">
<title>src/App.tsx&#45;&gt;src/routes/index.tsx</title>
<path fill="none" stroke="#000000" stroke-width="2" stroke-opacity="0.200000" d="M137.49,-754.69C139.7,-754.69 141.97,-754.69 144.24,-754.69"/>
<polygon fill="#000000" fill-opacity="0.200000" stroke="#000000" stroke-width="2" stroke-opacity="0.200000" points="143.9,-756.79 149.9,-754.69 143.9,-752.59 143.9,-756.79"/>
</g>
<!-- src/configuration/axiosConfig.tsx -->
<g id="node8" class="node">
<title>src/configuration/axiosConfig.tsx</title>
<g id="a_node8"><a xlink:href="src/configuration/axiosConfig.tsx" xlink:title="axiosConfig.tsx">
<path fill="#bbfeff" stroke="black" d="M704.08,-197.57C704.08,-197.57 637.67,-197.57 637.67,-197.57 634.71,-197.57 631.75,-194.61 631.75,-191.65 631.75,-191.65 631.75,-185.73 631.75,-185.73 631.75,-182.77 634.71,-179.82 637.67,-179.82 637.67,-179.82 704.08,-179.82 704.08,-179.82 707.04,-179.82 710,-182.77 710,-185.73 710,-185.73 710,-191.65 710,-191.65 710,-194.61 707.04,-197.57 704.08,-197.57"/>
<text text-anchor="start" x="639.75" y="-185.02" font-family="Helvetica,sans-Serif" font-size="9.00">axiosConfig.tsx</text>
</a>
</g>
</g>
<!-- src/provider/authProvider.tsx&#45;&gt;src/configuration/axiosConfig.tsx -->
<g id="edge45" class="edge">
<title>src/provider/authProvider.tsx&#45;&gt;src/configuration/axiosConfig.tsx</title>
<path fill="none" stroke="#000000" stroke-width="2" stroke-opacity="0.200000" d="M561.65,-745.32C575.01,-727.86 602.94,-688.65 615.75,-650.69 671.61,-485.08 671.71,-269.29 670.4,-206.53"/>
<polygon fill="#000000" fill-opacity="0.200000" stroke="#000000" stroke-width="2" stroke-opacity="0.200000" points="672.51,-206.77 670.26,-200.83 668.31,-206.88 672.51,-206.77"/>
</g>
<!-- src/routes/index.tsx&#45;&gt;src/provider/authProvider.tsx -->
<g id="edge58" class="edge">
<title>src/routes/index.tsx&#45;&gt;src/provider/authProvider.tsx</title>
<path fill="none" stroke="#000000" stroke-width="2" stroke-opacity="0.200000" d="M198.18,-763.92C203.43,-766.28 209.32,-768.49 215,-769.69 315.85,-790.95 437.29,-775.92 503.44,-764.43"/>
<polygon fill="#000000" fill-opacity="0.200000" stroke="#000000" stroke-width="2" stroke-opacity="0.200000" points="503.49,-766.56 509.02,-763.44 502.75,-762.42 503.49,-766.56"/>
</g>
<!-- src/components/MainComponent.tsx -->
<g id="node5" class="node">
<title>src/components/MainComponent.tsx</title>
<g id="a_node5"><a xlink:href="src/components/MainComponent.tsx" xlink:title="MainComponent.tsx">
<path fill="#bbfeff" stroke="black" d="M325.46,-583.57C325.46,-583.57 239.54,-583.57 239.54,-583.57 236.58,-583.57 233.62,-580.61 233.62,-577.65 233.62,-577.65 233.62,-571.73 233.62,-571.73 233.62,-568.77 236.58,-565.82 239.54,-565.82 239.54,-565.82 325.46,-565.82 325.46,-565.82 328.42,-565.82 331.38,-568.77 331.38,-571.73 331.38,-571.73 331.38,-577.65 331.38,-577.65 331.38,-580.61 328.42,-583.57 325.46,-583.57"/>
<text text-anchor="start" x="241.62" y="-571.02" font-family="Helvetica,sans-Serif" font-size="9.00">MainComponent.tsx</text>
</a>
</g>
</g>
<!-- src/routes/index.tsx&#45;&gt;src/components/MainComponent.tsx -->
<g id="edge50" class="edge">
<title>src/routes/index.tsx&#45;&gt;src/components/MainComponent.tsx</title>
<path fill="none" stroke="#000000" stroke-width="2" stroke-opacity="0.200000" d="M203.85,-745.35C205.05,-744.26 206.12,-743.04 207,-741.69 216.32,-727.45 203.93,-601.63 215,-588.69 217.87,-585.34 221.32,-582.67 225.12,-580.55"/>
<polygon fill="#000000" fill-opacity="0.200000" stroke="#000000" stroke-width="2" stroke-opacity="0.200000" points="225.92,-582.49 230.57,-578.15 224.23,-578.64 225.92,-582.49"/>
</g>
<!-- src/components/authentication/Login.tsx -->
<g id="node7" class="node">
<title>src/components/authentication/Login.tsx</title>
<g id="a_node7"><a xlink:href="src/components/authentication/Login.tsx" xlink:title="Login.tsx">
<path fill="#bbfeff" stroke="black" d="M303.58,-677.57C303.58,-677.57 261.42,-677.57 261.42,-677.57 258.46,-677.57 255.5,-674.61 255.5,-671.65 255.5,-671.65 255.5,-665.73 255.5,-665.73 255.5,-662.77 258.46,-659.82 261.42,-659.82 261.42,-659.82 303.58,-659.82 303.58,-659.82 306.54,-659.82 309.5,-662.77 309.5,-665.73 309.5,-665.73 309.5,-671.65 309.5,-671.65 309.5,-674.61 306.54,-677.57 303.58,-677.57"/>
<text text-anchor="start" x="264.12" y="-665.02" font-family="Helvetica,sans-Serif" font-size="9.00">Login.tsx</text>
</a>
</g>
</g>
<!-- src/routes/index.tsx&#45;&gt;src/components/authentication/Login.tsx -->
<g id="edge47" class="edge">
<title>src/routes/index.tsx&#45;&gt;src/components/authentication/Login.tsx</title>
<path fill="none" stroke="#000000" stroke-width="2" stroke-opacity="0.200000" d="M201.24,-745.36C203.24,-744.21 205.19,-742.98 207,-741.69 213.49,-737.06 246.3,-704.26 266.15,-684.24"/>
<polygon fill="#000000" fill-opacity="0.200000" stroke="#000000" stroke-width="2" stroke-opacity="0.200000" points="267.47,-685.89 270.2,-680.14 264.49,-682.93 267.47,-685.89"/>
</g>
<!-- src/components/authentication/Register.tsx -->
<g id="node11" class="node">
<title>src/components/authentication/Register.tsx</title>
<g id="a_node11"><a xlink:href="src/components/authentication/Register.tsx" xlink:title="Register.tsx">
<path fill="#bbfeff" stroke="black" d="M308.58,-647.57C308.58,-647.57 256.42,-647.57 256.42,-647.57 253.46,-647.57 250.5,-644.61 250.5,-641.65 250.5,-641.65 250.5,-635.73 250.5,-635.73 250.5,-632.77 253.46,-629.82 256.42,-629.82 256.42,-629.82 308.58,-629.82 308.58,-629.82 311.54,-629.82 314.5,-632.77 314.5,-635.73 314.5,-635.73 314.5,-641.65 314.5,-641.65 314.5,-644.61 311.54,-647.57 308.58,-647.57"/>
<text text-anchor="start" x="258.5" y="-635.02" font-family="Helvetica,sans-Serif" font-size="9.00">Register.tsx</text>
</a>
</g>
</g>
<!-- src/routes/index.tsx&#45;&gt;src/components/authentication/Register.tsx -->
<g id="edge48" class="edge">
<title>src/routes/index.tsx&#45;&gt;src/components/authentication/Register.tsx</title>
<path fill="none" stroke="#000000" stroke-width="2" stroke-opacity="0.200000" d="M203.33,-745.72C204.73,-744.53 205.98,-743.19 207,-741.69 218.07,-725.47 202.06,-668.46 215,-653.69 221.7,-646.05 231.38,-641.85 241.3,-639.64"/>
<polygon fill="#000000" fill-opacity="0.200000" stroke="#000000" stroke-width="2" stroke-opacity="0.200000" points="241.45,-641.74 247.02,-638.67 240.75,-637.6 241.45,-641.74"/>
</g>
<!-- src/components/authentication/ResetPassword.tsx -->
<g id="node13" class="node">
<title>src/components/authentication/ResetPassword.tsx</title>
<g id="a_node13"><a xlink:href="src/components/authentication/ResetPassword.tsx" xlink:title="ResetPassword.tsx">
<path fill="#bbfeff" stroke="black" d="M323.58,-617.57C323.58,-617.57 241.42,-617.57 241.42,-617.57 238.46,-617.57 235.5,-614.61 235.5,-611.65 235.5,-611.65 235.5,-605.73 235.5,-605.73 235.5,-602.77 238.46,-599.82 241.42,-599.82 241.42,-599.82 323.58,-599.82 323.58,-599.82 326.54,-599.82 329.5,-602.77 329.5,-605.73 329.5,-605.73 329.5,-611.65 329.5,-611.65 329.5,-614.61 326.54,-617.57 323.58,-617.57"/>
<text text-anchor="start" x="243.5" y="-605.02" font-family="Helvetica,sans-Serif" font-size="9.00">ResetPassword.tsx</text>
</a>
</g>
</g>
<!-- src/routes/index.tsx&#45;&gt;src/components/authentication/ResetPassword.tsx -->
<g id="edge49" class="edge">
<title>src/routes/index.tsx&#45;&gt;src/components/authentication/ResetPassword.tsx</title>
<path fill="none" stroke="#000000" stroke-width="2" stroke-opacity="0.200000" d="M203.83,-745.34C205.03,-744.25 206.1,-743.04 207,-741.69 221.57,-719.81 197.9,-643.65 215,-623.69 218.27,-619.87 222.29,-616.91 226.72,-614.62"/>
<polygon fill="#000000" fill-opacity="0.200000" stroke="#000000" stroke-width="2" stroke-opacity="0.200000" points="227.5,-616.57 232.25,-612.34 225.91,-612.68 227.5,-616.57"/>
</g>
<!-- src/components/navigation/NavBar.tsx -->
<g id="node14" class="node">
<title>src/components/navigation/NavBar.tsx</title>
<g id="a_node14"><a xlink:href="src/components/navigation/NavBar.tsx" xlink:title="NavBar.tsx">
<path fill="#bbfeff" stroke="black" d="M306.71,-351.57C306.71,-351.57 258.29,-351.57 258.29,-351.57 255.33,-351.57 252.38,-348.61 252.38,-345.65 252.38,-345.65 252.38,-339.73 252.38,-339.73 252.38,-336.77 255.33,-333.82 258.29,-333.82 258.29,-333.82 306.71,-333.82 306.71,-333.82 309.67,-333.82 312.62,-336.77 312.62,-339.73 312.62,-339.73 312.62,-345.65 312.62,-345.65 312.62,-348.61 309.67,-351.57 306.71,-351.57"/>
<text text-anchor="start" x="260.38" y="-339.02" font-family="Helvetica,sans-Serif" font-size="9.00">NavBar.tsx</text>
</a>
</g>
</g>
<!-- src/routes/index.tsx&#45;&gt;src/components/navigation/NavBar.tsx -->
<g id="edge51" class="edge">
<title>src/routes/index.tsx&#45;&gt;src/components/navigation/NavBar.tsx</title>
<path fill="none" stroke="#000000" stroke-width="2" stroke-opacity="0.200000" d="M203.9,-745.38C205.08,-744.28 206.14,-743.06 207,-741.69 228.35,-707.99 194.98,-417.2 215,-382.69 221.87,-370.86 233.75,-362.12 245.59,-355.88"/>
<polygon fill="#000000" fill-opacity="0.200000" stroke="#000000" stroke-width="2" stroke-opacity="0.200000" points="246.51,-357.77 251,-353.27 244.68,-353.99 246.51,-357.77"/>
</g>
<!-- src/components/relationship/RelationshipList.tsx -->
<g id="node18" class="node">
<title>src/components/relationship/RelationshipList.tsx</title>
<g id="a_node18"><a xlink:href="src/components/relationship/RelationshipList.tsx" xlink:title="RelationshipList.tsx">
<path fill="#bbfeff" stroke="black" d="M324.33,-291.57C324.33,-291.57 240.67,-291.57 240.67,-291.57 237.71,-291.57 234.75,-288.61 234.75,-285.65 234.75,-285.65 234.75,-279.73 234.75,-279.73 234.75,-276.77 237.71,-273.82 240.67,-273.82 240.67,-273.82 324.33,-273.82 324.33,-273.82 327.29,-273.82 330.25,-276.77 330.25,-279.73 330.25,-279.73 330.25,-285.65 330.25,-285.65 330.25,-288.61 327.29,-291.57 324.33,-291.57"/>
<text text-anchor="start" x="242.75" y="-279.02" font-family="Helvetica,sans-Serif" font-size="9.00">RelationshipList.tsx</text>
</a>
</g>
</g>
<!-- src/routes/index.tsx&#45;&gt;src/components/relationship/RelationshipList.tsx -->
<g id="edge52" class="edge">
<title>src/routes/index.tsx&#45;&gt;src/components/relationship/RelationshipList.tsx</title>
<path fill="none" stroke="#000000" stroke-width="2" stroke-opacity="0.200000" d="M203.9,-745.39C205.09,-744.28 206.14,-743.06 207,-741.69 219.43,-722 203.35,-342.85 215,-322.69 221.91,-310.73 233.96,-301.94 245.91,-295.69"/>
<polygon fill="#000000" fill-opacity="0.200000" stroke="#000000" stroke-width="2" stroke-opacity="0.200000" points="246.48,-297.75 250.97,-293.25 244.66,-293.96 246.48,-297.75"/>
</g>
<!-- src/components/user/ChangePassword.tsx -->
<g id="node20" class="node">
<title>src/components/user/ChangePassword.tsx</title>
<g id="a_node20"><a xlink:href="src/components/user/ChangePassword.tsx" xlink:title="ChangePassword.tsx">
<path fill="#bbfeff" stroke="black" d="M328.08,-441.57C328.08,-441.57 236.92,-441.57 236.92,-441.57 233.96,-441.57 231,-438.61 231,-435.65 231,-435.65 231,-429.73 231,-429.73 231,-426.77 233.96,-423.82 236.92,-423.82 236.92,-423.82 328.08,-423.82 328.08,-423.82 331.04,-423.82 334,-426.77 334,-429.73 334,-429.73 334,-435.65 334,-435.65 334,-438.61 331.04,-441.57 328.08,-441.57"/>
<text text-anchor="start" x="239" y="-429.02" font-family="Helvetica,sans-Serif" font-size="9.00">ChangePassword.tsx</text>
</a>
</g>
</g>
<!-- src/routes/index.tsx&#45;&gt;src/components/user/ChangePassword.tsx -->
<g id="edge53" class="edge">
<title>src/routes/index.tsx&#45;&gt;src/components/user/ChangePassword.tsx</title>
<path fill="none" stroke="#000000" stroke-width="2" stroke-opacity="0.200000" d="M203.89,-745.38C205.08,-744.28 206.13,-743.05 207,-741.69 224.56,-714.13 194.25,-472.94 215,-447.69 217.2,-445.02 219.76,-442.76 222.57,-440.86"/>
<polygon fill="#000000" fill-opacity="0.200000" stroke="#000000" stroke-width="2" stroke-opacity="0.200000" points="223.56,-442.71 227.86,-438.04 221.58,-439.01 223.56,-442.71"/>
</g>
<!-- src/components/user/EditProfile.tsx -->
<g id="node21" class="node">
<title>src/components/user/EditProfile.tsx</title>
<g id="a_node21"><a xlink:href="src/components/user/EditProfile.tsx" xlink:title="EditProfile.tsx">
<path fill="#bbfeff" stroke="black" d="M312.33,-411.57C312.33,-411.57 252.67,-411.57 252.67,-411.57 249.71,-411.57 246.75,-408.61 246.75,-405.65 246.75,-405.65 246.75,-399.73 246.75,-399.73 246.75,-396.77 249.71,-393.82 252.67,-393.82 252.67,-393.82 312.33,-393.82 312.33,-393.82 315.29,-393.82 318.25,-396.77 318.25,-399.73 318.25,-399.73 318.25,-405.65 318.25,-405.65 318.25,-408.61 315.29,-411.57 312.33,-411.57"/>
<text text-anchor="start" x="254.75" y="-399.02" font-family="Helvetica,sans-Serif" font-size="9.00">EditProfile.tsx</text>
</a>
</g>
</g>
<!-- src/routes/index.tsx&#45;&gt;src/components/user/EditProfile.tsx -->
<g id="edge54" class="edge">
<title>src/routes/index.tsx&#45;&gt;src/components/user/EditProfile.tsx</title>
<path fill="none" stroke="#000000" stroke-width="2" stroke-opacity="0.200000" d="M203.89,-745.38C205.08,-744.28 206.13,-743.05 207,-741.69 216.65,-726.49 203.58,-431.61 215,-417.69 220.74,-410.69 228.99,-406.53 237.73,-404.15"/>
<polygon fill="#000000" fill-opacity="0.200000" stroke="#000000" stroke-width="2" stroke-opacity="0.200000" points="238.16,-406.2 243.6,-402.93 237.3,-402.09 238.16,-406.2"/>
</g>
<!-- src/components/user/FriendProfile.tsx -->
<g id="node22" class="node">
<title>src/components/user/FriendProfile.tsx</title>
<g id="a_node22"><a xlink:href="src/components/user/FriendProfile.tsx" xlink:title="FriendProfile.tsx">
<path fill="#bbfeff" stroke="black" d="M317.58,-501.57C317.58,-501.57 247.42,-501.57 247.42,-501.57 244.46,-501.57 241.5,-498.61 241.5,-495.65 241.5,-495.65 241.5,-489.73 241.5,-489.73 241.5,-486.77 244.46,-483.82 247.42,-483.82 247.42,-483.82 317.58,-483.82 317.58,-483.82 320.54,-483.82 323.5,-486.77 323.5,-489.73 323.5,-489.73 323.5,-495.65 323.5,-495.65 323.5,-498.61 320.54,-501.57 317.58,-501.57"/>
<text text-anchor="start" x="249.5" y="-489.02" font-family="Helvetica,sans-Serif" font-size="9.00">FriendProfile.tsx</text>
</a>
</g>
</g>
<!-- src/routes/index.tsx&#45;&gt;src/components/user/FriendProfile.tsx -->
<g id="edge55" class="edge">
<title>src/routes/index.tsx&#45;&gt;src/components/user/FriendProfile.tsx</title>
<path fill="none" stroke="#000000" stroke-width="2" stroke-opacity="0.200000" d="M203.88,-745.37C205.07,-744.27 206.13,-743.05 207,-741.69 221.05,-719.8 198.41,-527.73 215,-507.69 219.67,-502.06 225.95,-498.27 232.81,-495.76"/>
<polygon fill="#000000" fill-opacity="0.200000" stroke="#000000" stroke-width="2" stroke-opacity="0.200000" points="232.97,-497.9 238.15,-494.22 231.8,-493.87 232.97,-497.9"/>
</g>
<!-- src/components/user/MyProfile.tsx -->
<g id="node26" class="node">
<title>src/components/user/MyProfile.tsx</title>
<g id="a_node26"><a xlink:href="src/components/user/MyProfile.tsx" xlink:title="MyProfile.tsx">
<path fill="#bbfeff" stroke="black" d="M310.46,-471.57C310.46,-471.57 254.54,-471.57 254.54,-471.57 251.58,-471.57 248.62,-468.61 248.62,-465.65 248.62,-465.65 248.62,-459.73 248.62,-459.73 248.62,-456.77 251.58,-453.82 254.54,-453.82 254.54,-453.82 310.46,-453.82 310.46,-453.82 313.42,-453.82 316.38,-456.77 316.38,-459.73 316.38,-459.73 316.38,-465.65 316.38,-465.65 316.38,-468.61 313.42,-471.57 310.46,-471.57"/>
<text text-anchor="start" x="256.62" y="-459.02" font-family="Helvetica,sans-Serif" font-size="9.00">MyProfile.tsx</text>
</a>
</g>
</g>
<!-- src/routes/index.tsx&#45;&gt;src/components/user/MyProfile.tsx -->
<g id="edge56" class="edge">
<title>src/routes/index.tsx&#45;&gt;src/components/user/MyProfile.tsx</title>
<path fill="none" stroke="#000000" stroke-width="2" stroke-opacity="0.200000" d="M203.89,-745.38C205.07,-744.28 206.13,-743.05 207,-741.69 222.8,-716.96 196.33,-500.33 215,-477.69 221.17,-470.21 230.2,-465.98 239.63,-463.69"/>
<polygon fill="#000000" fill-opacity="0.200000" stroke="#000000" stroke-width="2" stroke-opacity="0.200000" points="239.83,-465.79 245.35,-462.64 239.07,-461.66 239.83,-465.79"/>
</g>
<!-- src/components/user/UserList.tsx -->
<g id="node27" class="node">
<title>src/components/user/UserList.tsx</title>
<g id="a_node27"><a xlink:href="src/components/user/UserList.tsx" xlink:title="UserList.tsx">
<path fill="#bbfeff" stroke="black" d="M308.21,-531.57C308.21,-531.57 256.79,-531.57 256.79,-531.57 253.83,-531.57 250.88,-528.61 250.88,-525.65 250.88,-525.65 250.88,-519.73 250.88,-519.73 250.88,-516.77 253.83,-513.82 256.79,-513.82 256.79,-513.82 308.21,-513.82 308.21,-513.82 311.17,-513.82 314.12,-516.77 314.12,-519.73 314.12,-519.73 314.12,-525.65 314.12,-525.65 314.12,-528.61 311.17,-531.57 308.21,-531.57"/>
<text text-anchor="start" x="258.88" y="-519.02" font-family="Helvetica,sans-Serif" font-size="9.00">UserList.tsx</text>
</a>
</g>
</g>
<!-- src/routes/index.tsx&#45;&gt;src/components/user/UserList.tsx -->
<g id="edge57" class="edge">
<title>src/routes/index.tsx&#45;&gt;src/components/user/UserList.tsx</title>
<path fill="none" stroke="#000000" stroke-width="2" stroke-opacity="0.200000" d="M203.87,-745.37C205.06,-744.27 206.12,-743.05 207,-741.69 219.42,-722.44 200.1,-553.09 215,-535.69 221.69,-527.88 231.56,-523.89 241.66,-522.02"/>
<polygon fill="#000000" fill-opacity="0.200000" stroke="#000000" stroke-width="2" stroke-opacity="0.200000" points="241.84,-524.11 247.52,-521.27 241.31,-519.95 241.84,-524.11"/>
</g>
<!-- src/routes/ProtectedRoute.tsx -->
<g id="node29" class="node">
<title>src/routes/ProtectedRoute.tsx</title>
<g id="a_node29"><a xlink:href="src/routes/ProtectedRoute.tsx" xlink:title="ProtectedRoute.tsx">
<path fill="#bbfeff" stroke="black" d="M323.21,-763.57C323.21,-763.57 241.79,-763.57 241.79,-763.57 238.83,-763.57 235.88,-760.61 235.88,-757.65 235.88,-757.65 235.88,-751.73 235.88,-751.73 235.88,-748.77 238.83,-745.82 241.79,-745.82 241.79,-745.82 323.21,-745.82 323.21,-745.82 326.17,-745.82 329.12,-748.77 329.12,-751.73 329.12,-751.73 329.12,-757.65 329.12,-757.65 329.12,-760.61 326.17,-763.57 323.21,-763.57"/>
<text text-anchor="start" x="243.88" y="-751.02" font-family="Helvetica,sans-Serif" font-size="9.00">ProtectedRoute.tsx</text>
</a>
</g>
</g>
<!-- src/routes/index.tsx&#45;&gt;src/routes/ProtectedRoute.tsx -->
<g id="edge59" class="edge">
<title>src/routes/index.tsx&#45;&gt;src/routes/ProtectedRoute.tsx</title>
<path fill="none" stroke="#000000" stroke-width="2" stroke-opacity="0.200000" d="M207.41,-754.69C213.46,-754.69 220.11,-754.69 226.87,-754.69"/>
<polygon fill="#000000" fill-opacity="0.200000" stroke="#000000" stroke-width="2" stroke-opacity="0.200000" points="226.42,-756.79 232.42,-754.69 226.42,-752.59 226.42,-756.79"/>
</g>
<!-- src/components/news/NewsList.tsx -->
<g id="node6" class="node">
<title>src/components/news/NewsList.tsx</title>
<g id="a_node6"><a xlink:href="src/components/news/NewsList.tsx" xlink:title="NewsList.tsx">
<path fill="#bbfeff" stroke="black" d="M446.08,-621.57C446.08,-621.57 390.92,-621.57 390.92,-621.57 387.96,-621.57 385,-618.61 385,-615.65 385,-615.65 385,-609.73 385,-609.73 385,-606.77 387.96,-603.82 390.92,-603.82 390.92,-603.82 446.08,-603.82 446.08,-603.82 449.04,-603.82 452,-606.77 452,-609.73 452,-609.73 452,-615.65 452,-615.65 452,-618.61 449.04,-621.57 446.08,-621.57"/>
<text text-anchor="start" x="393" y="-609.02" font-family="Helvetica,sans-Serif" font-size="9.00">NewsList.tsx</text>
</a>
</g>
</g>
<!-- src/components/MainComponent.tsx&#45;&gt;src/components/news/NewsList.tsx -->
<g id="edge4" class="edge">
<title>src/components/MainComponent.tsx&#45;&gt;src/components/news/NewsList.tsx</title>
<path fill="none" stroke="#000000" stroke-width="2" stroke-opacity="0.200000" d="M328.9,-583.98C332.16,-585.34 335.32,-586.9 338.25,-588.69 342.82,-591.48 341.62,-595.01 346.25,-597.69 355.21,-602.89 365.74,-606.3 375.92,-608.53"/>
<polygon fill="#000000" fill-opacity="0.200000" stroke="#000000" stroke-width="2" stroke-opacity="0.200000" points="375.46,-610.58 381.74,-609.64 376.24,-606.46 375.46,-610.58"/>
</g>
<!-- src/components/news/NewsList.tsx&#45;&gt;src/provider/authProvider.tsx -->
<g id="edge21" class="edge">
<title>src/components/news/NewsList.tsx&#45;&gt;src/provider/authProvider.tsx</title>
<path fill="none" stroke="#000000" stroke-width="2" stroke-opacity="0.200000" d="M438.35,-621.95C451.73,-629.12 469.58,-639.96 482.75,-652.69 509.41,-678.46 531.78,-715.99 543.48,-737.61"/>
<polygon fill="#000000" fill-opacity="0.200000" stroke="#000000" stroke-width="2" stroke-opacity="0.200000" points="541.48,-738.32 546.15,-742.64 545.19,-736.36 541.48,-738.32"/>
</g>
<!-- src/components/news/NewsList.tsx&#45;&gt;src/configuration/axiosConfig.tsx -->
<g id="edge20" class="edge">
<title>src/components/news/NewsList.tsx&#45;&gt;src/configuration/axiosConfig.tsx</title>
<path fill="none" stroke="#000000" stroke-width="2" stroke-opacity="0.200000" d="M452.38,-609.79C462.81,-607.64 473.92,-603.96 482.75,-597.69 572.22,-534.17 571.41,-490.06 615.75,-389.69 644.18,-325.33 660.67,-242.61 666.94,-206.68"/>
<polygon fill="#000000" fill-opacity="0.200000" stroke="#000000" stroke-width="2" stroke-opacity="0.200000" points="669,-207.09 667.93,-200.82 664.86,-206.39 669,-207.09"/>
</g>
<!-- src/utils/cryptoUtils.tsx -->
<g id="node9" class="node">
<title>src/utils/cryptoUtils.tsx</title>
<g id="a_node9"><a xlink:href="src/utils/cryptoUtils.tsx" xlink:title="cryptoUtils.tsx">
<path fill="#bbfeff" stroke="black" d="M583.46,-833.57C583.46,-833.57 523.04,-833.57 523.04,-833.57 520.08,-833.57 517.12,-830.61 517.12,-827.65 517.12,-827.65 517.12,-821.73 517.12,-821.73 517.12,-818.77 520.08,-815.82 523.04,-815.82 523.04,-815.82 583.46,-815.82 583.46,-815.82 586.42,-815.82 589.38,-818.77 589.38,-821.73 589.38,-821.73 589.38,-827.65 589.38,-827.65 589.38,-830.61 586.42,-833.57 583.46,-833.57"/>
<text text-anchor="start" x="525.12" y="-821.02" font-family="Helvetica,sans-Serif" font-size="9.00">cryptoUtils.tsx</text>
</a>
</g>
</g>
<!-- src/components/news/NewsList.tsx&#45;&gt;src/utils/cryptoUtils.tsx -->
<g id="edge22" class="edge">
<title>src/components/news/NewsList.tsx&#45;&gt;src/utils/cryptoUtils.tsx</title>
<path fill="none" stroke="#000000" stroke-width="2" stroke-opacity="0.200000" d="M429.34,-621.64C443.95,-635.6 470.94,-664.18 482.75,-694.69 490.64,-715.07 478.66,-774.49 490.75,-792.69 496.1,-800.75 504.16,-806.91 512.69,-811.55"/>
<polygon fill="#000000" fill-opacity="0.200000" stroke="#000000" stroke-width="2" stroke-opacity="0.200000" points="511.56,-813.34 517.88,-814.09 513.41,-809.57 511.56,-813.34"/>
</g>
<!-- src/components/news/NewsCard.tsx -->
<g id="node17" class="node">
<title>src/components/news/NewsCard.tsx</title>
<g id="a_node17"><a xlink:href="src/components/news/NewsCard.tsx" xlink:title="NewsCard.tsx">
<path fill="#bbfeff" stroke="black" d="M583.83,-621.57C583.83,-621.57 522.67,-621.57 522.67,-621.57 519.71,-621.57 516.75,-618.61 516.75,-615.65 516.75,-615.65 516.75,-609.73 516.75,-609.73 516.75,-606.77 519.71,-603.82 522.67,-603.82 522.67,-603.82 583.83,-603.82 583.83,-603.82 586.79,-603.82 589.75,-606.77 589.75,-609.73 589.75,-609.73 589.75,-615.65 589.75,-615.65 589.75,-618.61 586.79,-621.57 583.83,-621.57"/>
<text text-anchor="start" x="524.75" y="-609.02" font-family="Helvetica,sans-Serif" font-size="9.00">NewsCard.tsx</text>
</a>
</g>
</g>
<!-- src/components/news/NewsList.tsx&#45;&gt;src/components/news/NewsCard.tsx -->
<g id="edge23" class="edge">
<title>src/components/news/NewsList.tsx&#45;&gt;src/components/news/NewsCard.tsx</title>
<path fill="none" stroke="#000000" stroke-width="2" stroke-opacity="0.200000" d="M452.31,-612.69C469.07,-612.69 489.71,-612.69 507.87,-612.69"/>
<polygon fill="#000000" fill-opacity="0.200000" stroke="#000000" stroke-width="2" stroke-opacity="0.200000" points="507.53,-614.79 513.53,-612.69 507.53,-610.59 507.53,-614.79"/>
</g>
<!-- src/components/authentication/Login.tsx&#45;&gt;src/provider/authProvider.tsx -->
<g id="edge6" class="edge">
<title>src/components/authentication/Login.tsx&#45;&gt;src/provider/authProvider.tsx</title>
<path fill="none" stroke="#000000" stroke-width="2" stroke-opacity="0.200000" d="M309.76,-677.09C357.65,-692.42 459.33,-724.96 514.59,-742.64"/>
<polygon fill="#000000" fill-opacity="0.200000" stroke="#000000" stroke-width="2" stroke-opacity="0.200000" points="513.81,-744.6 520.16,-744.42 515.09,-740.6 513.81,-744.6"/>
</g>
<!-- src/components/authentication/Login.tsx&#45;&gt;src/configuration/axiosConfig.tsx -->
<g id="edge5" class="edge">
<title>src/components/authentication/Login.tsx&#45;&gt;src/configuration/axiosConfig.tsx</title>
<path fill="none" stroke="#000000" stroke-width="2" stroke-opacity="0.200000" d="M309.81,-668C320.32,-666.27 331.51,-662.31 338.25,-653.69 349.58,-639.2 339.17,-339.67 346.25,-322.69 379.93,-241.89 445.61,-259.96 482.75,-180.69 489.58,-166.11 478.75,-119.43 490.75,-108.69 511.45,-90.17 591.21,-95.67 615.75,-108.69 640.56,-121.86 656.07,-152.04 663.83,-171.33"/>
<polygon fill="#000000" fill-opacity="0.200000" stroke="#000000" stroke-width="2" stroke-opacity="0.200000" points="661.79,-171.87 665.88,-176.74 665.72,-170.38 661.79,-171.87"/>
</g>
<!-- src/components/authentication/Login.tsx&#45;&gt;src/utils/cryptoUtils.tsx -->
<g id="edge7" class="edge">
<title>src/components/authentication/Login.tsx&#45;&gt;src/utils/cryptoUtils.tsx</title>
<path fill="none" stroke="#000000" stroke-width="2" stroke-opacity="0.200000" d="M293.39,-677.8C305.15,-688.16 325.77,-704.92 346.25,-714.69 402.87,-741.71 440.78,-704.06 482.75,-750.69 498.39,-768.07 475.87,-784.66 490.75,-802.69 495.47,-808.41 501.79,-812.65 508.59,-815.78"/>
<polygon fill="#000000" fill-opacity="0.200000" stroke="#000000" stroke-width="2" stroke-opacity="0.200000" points="507.55,-817.63 513.91,-817.87 509.09,-813.72 507.55,-817.63"/>
</g>
<!-- src/utils/loginUtils.tsx -->
<g id="node10" class="node">
<title>src/utils/loginUtils.tsx</title>
<g id="a_node10"><a xlink:href="src/utils/loginUtils.tsx" xlink:title="loginUtils.tsx">
<path fill="#bbfeff" stroke="black" d="M581.21,-863.57C581.21,-863.57 525.29,-863.57 525.29,-863.57 522.33,-863.57 519.38,-860.61 519.38,-857.65 519.38,-857.65 519.38,-851.73 519.38,-851.73 519.38,-848.77 522.33,-845.82 525.29,-845.82 525.29,-845.82 581.21,-845.82 581.21,-845.82 584.17,-845.82 587.12,-848.77 587.12,-851.73 587.12,-851.73 587.12,-857.65 587.12,-857.65 587.12,-860.61 584.17,-863.57 581.21,-863.57"/>
<text text-anchor="start" x="527.38" y="-851.02" font-family="Helvetica,sans-Serif" font-size="9.00">loginUtils.tsx</text>
</a>
</g>
</g>
<!-- src/components/authentication/Login.tsx&#45;&gt;src/utils/loginUtils.tsx -->
<g id="edge8" class="edge">
<title>src/components/authentication/Login.tsx&#45;&gt;src/utils/loginUtils.tsx</title>
<path fill="none" stroke="#000000" stroke-width="2" stroke-opacity="0.200000" d="M291.07,-678.06C302.35,-691.72 324.56,-717.57 346.25,-736.69 405.42,-788.84 419.04,-806.87 490.75,-839.69 496.93,-842.52 503.72,-844.86 510.46,-846.78"/>
<polygon fill="#000000" fill-opacity="0.200000" stroke="#000000" stroke-width="2" stroke-opacity="0.200000" points="509.65,-848.74 515.99,-848.23 510.71,-844.68 509.65,-848.74"/>
</g>
<!-- src/components/authentication/Register.tsx&#45;&gt;src/configuration/axiosConfig.tsx -->
<g id="edge9" class="edge">
<title>src/components/authentication/Register.tsx&#45;&gt;src/configuration/axiosConfig.tsx</title>
<path fill="none" stroke="#000000" stroke-width="2" stroke-opacity="0.200000" d="M314.98,-636.99C323.86,-634.88 332.62,-630.93 338.25,-623.69 352.51,-605.36 333.31,-224.98 346.25,-205.69 383.07,-150.81 442.02,-198.74 482.75,-146.69 496.08,-129.66 474.25,-112.67 490.75,-98.69 511.94,-80.74 591.57,-85.02 615.75,-98.69 642.99,-114.09 658.03,-149.29 664.99,-170.82"/>
<polygon fill="#000000" fill-opacity="0.200000" stroke="#000000" stroke-width="2" stroke-opacity="0.200000" points="662.95,-171.33 666.69,-176.47 666.97,-170.12 662.95,-171.33"/>
</g>
<!-- src/components/authentication/Register.tsx&#45;&gt;src/utils/cryptoUtils.tsx -->
<g id="edge11" class="edge">
<title>src/components/authentication/Register.tsx&#45;&gt;src/utils/cryptoUtils.tsx</title>
<path fill="none" stroke="#000000" stroke-width="2" stroke-opacity="0.200000" d="M314.97,-641.35C323.52,-643.53 332.11,-647.29 338.25,-653.69 349.29,-665.21 334.53,-677.86 346.25,-688.69 391.29,-730.3 440.73,-664.04 482.75,-708.69 497.12,-723.96 477.96,-786.08 490.75,-802.69 495.32,-808.63 501.64,-812.97 508.49,-816.14"/>
<polygon fill="#000000" fill-opacity="0.200000" stroke="#000000" stroke-width="2" stroke-opacity="0.200000" points="507.53,-818.02 513.89,-818.25 509.06,-814.11 507.53,-818.02"/>
</g>
<!-- src/components/authentication/Register.tsx&#45;&gt;src/utils/loginUtils.tsx -->
<g id="edge12" class="edge">
<title>src/components/authentication/Register.tsx&#45;&gt;src/utils/loginUtils.tsx</title>
<path fill="none" stroke="#000000" stroke-width="2" stroke-opacity="0.200000" d="M314.94,-641.04C323.6,-643.2 332.25,-647.02 338.25,-653.69 353.01,-670.1 331.13,-686.62 346.25,-702.69 388.87,-748.01 442.13,-686.57 482.75,-733.69 498.17,-751.58 475.47,-821.68 490.75,-839.69 495.92,-845.79 503.11,-849.63 510.76,-852.01"/>
<polygon fill="#000000" fill-opacity="0.200000" stroke="#000000" stroke-width="2" stroke-opacity="0.200000" points="509.9,-853.96 516.23,-853.33 510.89,-849.88 509.9,-853.96"/>
</g>
<!-- src/hooks/useAvatarUploader.tsx -->
<g id="node12" class="node">
<title>src/hooks/useAvatarUploader.tsx</title>
<g id="a_node12"><a xlink:href="src/hooks/useAvatarUploader.tsx" xlink:title="useAvatarUploader.tsx">
<path fill="#bbfeff" stroke="black" d="M601.83,-167.57C601.83,-167.57 504.67,-167.57 504.67,-167.57 501.71,-167.57 498.75,-164.61 498.75,-161.65 498.75,-161.65 498.75,-155.73 498.75,-155.73 498.75,-152.77 501.71,-149.82 504.67,-149.82 504.67,-149.82 601.83,-149.82 601.83,-149.82 604.79,-149.82 607.75,-152.77 607.75,-155.73 607.75,-155.73 607.75,-161.65 607.75,-161.65 607.75,-164.61 604.79,-167.57 601.83,-167.57"/>
<text text-anchor="start" x="506.75" y="-155.02" font-family="Helvetica,sans-Serif" font-size="9.00">useAvatarUploader.tsx</text>
</a>
</g>
</g>
<!-- src/components/authentication/Register.tsx&#45;&gt;src/hooks/useAvatarUploader.tsx -->
<g id="edge10" class="edge">
<title>src/components/authentication/Register.tsx&#45;&gt;src/hooks/useAvatarUploader.tsx</title>
<path fill="none" stroke="#000000" stroke-width="2" stroke-opacity="0.200000" d="M314.94,-636.96C323.82,-634.86 332.59,-630.9 338.25,-623.69 348.57,-610.53 339.09,-337.81 346.25,-322.69 380.57,-250.21 440.48,-272.84 482.75,-204.69 490.25,-192.6 480.62,-183.69 490.75,-173.69 490.89,-173.55 491.03,-173.41 491.18,-173.28"/>
<polygon fill="#000000" fill-opacity="0.200000" stroke="#000000" stroke-width="2" stroke-opacity="0.200000" points="492.37,-175.01 495.88,-169.71 489.83,-171.66 492.37,-175.01"/>
</g>
<!-- src/components/authentication/ResetPassword.tsx&#45;&gt;src/configuration/axiosConfig.tsx -->
<g id="edge13" class="edge">
<title>src/components/authentication/ResetPassword.tsx&#45;&gt;src/configuration/axiosConfig.tsx</title>
<path fill="none" stroke="#000000" stroke-width="2" stroke-opacity="0.200000" d="M329.92,-602.75C333.07,-600.9 335.92,-598.58 338.25,-595.69 352.17,-578.44 336.29,-216.5 346.25,-196.69 382.74,-124.09 413.87,-111 490.75,-84.69 543.31,-66.71 568.26,-55.87 615.75,-84.69 646.78,-103.52 660.84,-146.58 666.52,-170.98"/>
<polygon fill="#000000" fill-opacity="0.200000" stroke="#000000" stroke-width="2" stroke-opacity="0.200000" points="664.42,-171.22 667.73,-176.65 668.53,-170.34 664.42,-171.22"/>
</g>
<!-- src/components/navigation/NavBar.tsx&#45;&gt;src/provider/authProvider.tsx -->
<g id="edge14" class="edge">
<title>src/components/navigation/NavBar.tsx&#45;&gt;src/provider/authProvider.tsx</title>
<path fill="none" stroke="#000000" stroke-width="2" stroke-opacity="0.200000" d="M304.22,-351.93C316.46,-358.58 330.95,-368.84 338.25,-382.69 345.19,-395.87 335.99,-639.9 346.25,-650.69 367.22,-672.75 456.11,-646.98 482.75,-661.69 513.45,-678.65 534.53,-715.53 544.88,-737.41"/>
<polygon fill="#000000" fill-opacity="0.200000" stroke="#000000" stroke-width="2" stroke-opacity="0.200000" points="542.91,-738.15 547.3,-742.75 546.74,-736.42 542.91,-738.15"/>
</g>
<!-- src/components/navigation/SearchBar.tsx -->
<g id="node15" class="node">
<title>src/components/navigation/SearchBar.tsx</title>
<g id="a_node15"><a xlink:href="src/components/navigation/SearchBar.tsx" xlink:title="SearchBar.tsx">
<path fill="#bbfeff" stroke="black" d="M449.08,-351.57C449.08,-351.57 387.92,-351.57 387.92,-351.57 384.96,-351.57 382,-348.61 382,-345.65 382,-345.65 382,-339.73 382,-339.73 382,-336.77 384.96,-333.82 387.92,-333.82 387.92,-333.82 449.08,-333.82 449.08,-333.82 452.04,-333.82 455,-336.77 455,-339.73 455,-339.73 455,-345.65 455,-345.65 455,-348.61 452.04,-351.57 449.08,-351.57"/>
<text text-anchor="start" x="390" y="-339.02" font-family="Helvetica,sans-Serif" font-size="9.00">SearchBar.tsx</text>
</a>
</g>
</g>
<!-- src/components/navigation/NavBar.tsx&#45;&gt;src/components/navigation/SearchBar.tsx -->
<g id="edge15" class="edge">
<title>src/components/navigation/NavBar.tsx&#45;&gt;src/components/navigation/SearchBar.tsx</title>
<path fill="none" stroke="#000000" stroke-width="2" stroke-opacity="0.200000" d="M312.91,-342.69C330.54,-342.69 353.32,-342.69 373.11,-342.69"/>
<polygon fill="#000000" fill-opacity="0.200000" stroke="#000000" stroke-width="2" stroke-opacity="0.200000" points="372.94,-344.79 378.94,-342.69 372.94,-340.59 372.94,-344.79"/>
</g>
<!-- src/components/news/CreateNewsComponent.tsx -->
<g id="node16" class="node">
<title>src/components/news/CreateNewsComponent.tsx</title>
<g id="a_node16"><a xlink:href="src/components/news/CreateNewsComponent.tsx" xlink:title="CreateNewsComponent.tsx">
<path fill="#bbfeff" stroke="black" d="M476.83,-591.57C476.83,-591.57 360.17,-591.57 360.17,-591.57 357.21,-591.57 354.25,-588.61 354.25,-585.65 354.25,-585.65 354.25,-579.73 354.25,-579.73 354.25,-576.77 357.21,-573.82 360.17,-573.82 360.17,-573.82 476.83,-573.82 476.83,-573.82 479.79,-573.82 482.75,-576.77 482.75,-579.73 482.75,-579.73 482.75,-585.65 482.75,-585.65 482.75,-588.61 479.79,-591.57 476.83,-591.57"/>
<text text-anchor="start" x="362.25" y="-579.02" font-family="Helvetica,sans-Serif" font-size="9.00">CreateNewsComponent.tsx</text>
</a>
</g>
</g>
<!-- src/components/news/CreateNewsComponent.tsx&#45;&gt;src/configuration/axiosConfig.tsx -->
<g id="edge16" class="edge">
<title>src/components/news/CreateNewsComponent.tsx&#45;&gt;src/configuration/axiosConfig.tsx</title>
<path fill="none" stroke="#000000" stroke-width="2" stroke-opacity="0.200000" d="M465.85,-573.38C472.3,-570.29 478.25,-566.17 482.75,-560.69 498.99,-540.93 482.5,-527.91 490.75,-503.69 532.84,-380.1 624.41,-249.87 657.57,-204.99"/>
<polygon fill="#000000" fill-opacity="0.200000" stroke="#000000" stroke-width="2" stroke-opacity="0.200000" points="659.18,-206.35 661.08,-200.28 655.82,-203.84 659.18,-206.35"/>
</g>
<!-- src/components/news/CreateNewsComponent.tsx&#45;&gt;src/utils/cryptoUtils.tsx -->
<g id="edge17" class="edge">
<title>src/components/news/CreateNewsComponent.tsx&#45;&gt;src/utils/cryptoUtils.tsx</title>
<path fill="none" stroke="#000000" stroke-width="2" stroke-opacity="0.200000" d="M476.67,-591.97C478.91,-593.62 480.96,-595.51 482.75,-597.69 496.54,-614.42 479.12,-774.39 490.75,-792.69 495.84,-800.7 503.62,-806.81 511.96,-811.43"/>
<polygon fill="#000000" fill-opacity="0.200000" stroke="#000000" stroke-width="2" stroke-opacity="0.200000" points="511.03,-813.31 517.34,-814.08 512.88,-809.54 511.03,-813.31"/>
</g>
<!-- src/components/news/NewsCard.tsx&#45;&gt;src/provider/authProvider.tsx -->
<g id="edge19" class="edge">
<title>src/components/news/NewsCard.tsx&#45;&gt;src/provider/authProvider.tsx</title>
<path fill="none" stroke="#000000" stroke-width="2" stroke-opacity="0.200000" d="M553.25,-621.84C553.25,-660.12 553.25,-698.39 553.25,-736.67"/>
<polygon fill="#000000" fill-opacity="0.200000" stroke="#000000" stroke-width="2" stroke-opacity="0.200000" points="551.15,-736.32 553.25,-742.32 555.35,-736.32 551.15,-736.32"/>
</g>
<!-- src/components/news/NewsCard.tsx&#45;&gt;src/configuration/axiosConfig.tsx -->
<g id="edge18" class="edge">
<title>src/components/news/NewsCard.tsx&#45;&gt;src/configuration/axiosConfig.tsx</title>
<path fill="none" stroke="#000000" stroke-width="2" stroke-opacity="0.200000" d="M561.48,-603.57C574.57,-586.57 602.07,-548.44 615.75,-511.69 657.05,-400.8 666.97,-256.73 669.24,-206.72"/>
<polygon fill="#000000" fill-opacity="0.200000" stroke="#000000" stroke-width="2" stroke-opacity="0.200000" points="671.32,-207.12 669.47,-201.04 667.13,-206.94 671.32,-207.12"/>
</g>
<!-- src/components/relationship/RelationshipList.tsx&#45;&gt;src/configuration/axiosConfig.tsx -->
<g id="edge24" class="edge">
<title>src/components/relationship/RelationshipList.tsx&#45;&gt;src/configuration/axiosConfig.tsx</title>
<path fill="none" stroke="#000000" stroke-width="2" stroke-opacity="0.200000" d="M330.36,-276.41C333.33,-274.62 336.02,-272.41 338.25,-269.69 353.28,-251.39 329.19,-73.12 346.25,-56.69 432.52,26.4 516.28,10.03 615.75,-56.69 654.19,-82.48 665.35,-140.95 668.58,-170.66"/>
<polygon fill="#000000" fill-opacity="0.200000" stroke="#000000" stroke-width="2" stroke-opacity="0.200000" points="666.47,-170.74 669.12,-176.52 670.66,-170.36 666.47,-170.74"/>
</g>
<!-- src/components/user/UserCard.tsx -->
<g id="node19" class="node">
<title>src/components/user/UserCard.tsx</title>
<g id="a_node19"><a xlink:href="src/components/user/UserCard.tsx" xlink:title="UserCard.tsx">
<path fill="#bbfeff" stroke="black" d="M447.21,-441.57C447.21,-441.57 389.79,-441.57 389.79,-441.57 386.83,-441.57 383.88,-438.61 383.88,-435.65 383.88,-435.65 383.88,-429.73 383.88,-429.73 383.88,-426.77 386.83,-423.82 389.79,-423.82 389.79,-423.82 447.21,-423.82 447.21,-423.82 450.17,-423.82 453.12,-426.77 453.12,-429.73 453.12,-429.73 453.12,-435.65 453.12,-435.65 453.12,-438.61 450.17,-441.57 447.21,-441.57"/>
<text text-anchor="start" x="391.88" y="-429.02" font-family="Helvetica,sans-Serif" font-size="9.00">UserCard.tsx</text>
</a>
</g>
</g>
<!-- src/components/relationship/RelationshipList.tsx&#45;&gt;src/components/user/UserCard.tsx -->
<g id="edge25" class="edge">
<title>src/components/relationship/RelationshipList.tsx&#45;&gt;src/components/user/UserCard.tsx</title>
<path fill="none" stroke="#000000" stroke-width="2" stroke-opacity="0.200000" d="M303.44,-292.06C315.54,-298.82 330.16,-309.15 338.25,-322.69 351.59,-345.03 332.9,-358.36 346.25,-380.69 356.29,-397.48 374.04,-410.46 389.32,-419.26"/>
<polygon fill="#000000" fill-opacity="0.200000" stroke="#000000" stroke-width="2" stroke-opacity="0.200000" points="388.1,-420.98 394.37,-422.02 390.12,-417.3 388.1,-420.98"/>
</g>
<!-- src/components/user/UserCard.tsx&#45;&gt;src/provider/authProvider.tsx -->
<g id="edge39" class="edge">
<title>src/components/user/UserCard.tsx&#45;&gt;src/provider/authProvider.tsx</title>
<path fill="none" stroke="#000000" stroke-width="2" stroke-opacity="0.200000" d="M453.53,-441.11C464.69,-445.63 475.97,-452.46 482.75,-462.69 494.3,-480.12 484.81,-630.65 490.75,-650.69 500.81,-684.6 524.3,-718.96 539.16,-738.46"/>
<polygon fill="#000000" fill-opacity="0.200000" stroke="#000000" stroke-width="2" stroke-opacity="0.200000" points="537.37,-739.58 542.71,-743.02 540.68,-737 537.37,-739.58"/>
</g>
<!-- src/hooks/useRelationship.tsx -->
<g id="node24" class="node">
<title>src/hooks/useRelationship.tsx</title>
<g id="a_node24"><a xlink:href="src/hooks/useRelationship.tsx" xlink:title="useRelationship.tsx">
<path fill="#bbfeff" stroke="black" d="M595.46,-197.57C595.46,-197.57 511.04,-197.57 511.04,-197.57 508.08,-197.57 505.12,-194.61 505.12,-191.65 505.12,-191.65 505.12,-185.73 505.12,-185.73 505.12,-182.77 508.08,-179.82 511.04,-179.82 511.04,-179.82 595.46,-179.82 595.46,-179.82 598.42,-179.82 601.38,-182.77 601.38,-185.73 601.38,-185.73 601.38,-191.65 601.38,-191.65 601.38,-194.61 598.42,-197.57 595.46,-197.57"/>
<text text-anchor="start" x="513.12" y="-185.02" font-family="Helvetica,sans-Serif" font-size="9.00">useRelationship.tsx</text>
</a>
</g>
</g>
<!-- src/components/user/UserCard.tsx&#45;&gt;src/hooks/useRelationship.tsx -->
<g id="edge38" class="edge">
<title>src/components/user/UserCard.tsx&#45;&gt;src/hooks/useRelationship.tsx</title>
<path fill="none" stroke="#000000" stroke-width="2" stroke-opacity="0.200000" d="M435.06,-423.38C449.27,-414.15 469.96,-398.8 482.75,-380.69 522.57,-324.32 542.02,-242.64 549.05,-206.75"/>
<polygon fill="#000000" fill-opacity="0.200000" stroke="#000000" stroke-width="2" stroke-opacity="0.200000" points="551.11,-207.16 550.16,-200.88 546.98,-206.39 551.11,-207.16"/>
</g>
<!-- src/components/user/ChangePassword.tsx&#45;&gt;src/configuration/axiosConfig.tsx -->
<g id="edge26" class="edge">
<title>src/components/user/ChangePassword.tsx&#45;&gt;src/configuration/axiosConfig.tsx</title>
<path fill="none" stroke="#000000" stroke-width="2" stroke-opacity="0.200000" d="M331.75,-423.58C334.16,-421.91 336.36,-419.96 338.25,-417.69 351.8,-401.4 333.61,-339.69 346.25,-322.69 422.14,-220.67 501.66,-282.83 615.75,-226.69 628.56,-220.39 641.69,-211.25 651.81,-203.51"/>
<polygon fill="#000000" fill-opacity="0.200000" stroke="#000000" stroke-width="2" stroke-opacity="0.200000" points="653.1,-205.16 656.53,-199.81 650.51,-201.86 653.1,-205.16"/>
</g>
<!-- src/components/user/EditProfile.tsx&#45;&gt;src/configuration/axiosConfig.tsx -->
<g id="edge27" class="edge">
<title>src/components/user/EditProfile.tsx&#45;&gt;src/configuration/axiosConfig.tsx</title>
<path fill="none" stroke="#000000" stroke-width="2" stroke-opacity="0.200000" d="M318.63,-395.45C326.29,-392.2 333.51,-387.5 338.25,-380.69 356.36,-354.7 325.51,-119.64 346.25,-95.69 385.63,-50.23 565.13,-38.22 615.75,-70.69 650.39,-92.91 663.15,-143.46 667.62,-170.62"/>
<polygon fill="#000000" fill-opacity="0.200000" stroke="#000000" stroke-width="2" stroke-opacity="0.200000" points="665.53,-170.85 668.48,-176.48 669.69,-170.24 665.53,-170.85"/>
</g>
<!-- src/components/user/EditProfile.tsx&#45;&gt;src/hooks/useAvatarUploader.tsx -->
<g id="edge28" class="edge">
<title>src/components/user/EditProfile.tsx&#45;&gt;src/hooks/useAvatarUploader.tsx</title>
<path fill="none" stroke="#000000" stroke-width="2" stroke-opacity="0.200000" d="M318.61,-395.44C326.27,-392.19 333.5,-387.49 338.25,-380.69 354.43,-357.55 325.97,-146.34 346.25,-126.69 389.82,-84.47 431.53,-94.19 482.75,-126.69 489.8,-131.17 484.28,-138.41 490.75,-143.69 491.18,-144.04 491.61,-144.38 492.05,-144.71"/>
<polygon fill="#000000" fill-opacity="0.200000" stroke="#000000" stroke-width="2" stroke-opacity="0.200000" points="490.88,-146.46 497.08,-147.85 493.1,-142.89 490.88,-146.46"/>
</g>
<!-- src/components/user/FriendProfile.tsx&#45;&gt;src/provider/authProvider.tsx -->
<g id="edge31" class="edge">
<title>src/components/user/FriendProfile.tsx&#45;&gt;src/provider/authProvider.tsx</title>
<path fill="none" stroke="#000000" stroke-width="2" stroke-opacity="0.200000" d="M323.84,-497.39C329.4,-499.71 334.48,-503.01 338.25,-507.69 359.6,-534.21 323.32,-635.52 346.25,-660.69 387.54,-706.02 428.4,-652.32 482.75,-680.69 508.49,-694.13 529.89,-720.92 541.87,-738.32"/>
<polygon fill="#000000" fill-opacity="0.200000" stroke="#000000" stroke-width="2" stroke-opacity="0.200000" points="539.94,-739.21 545.02,-743.04 543.44,-736.88 539.94,-739.21"/>
</g>
<!-- src/components/user/FriendProfile.tsx&#45;&gt;src/components/news/NewsList.tsx -->
<g id="edge32" class="edge">
<title>src/components/user/FriendProfile.tsx&#45;&gt;src/components/news/NewsList.tsx</title>
<path fill="none" stroke="#000000" stroke-width="2" stroke-opacity="0.200000" d="M323.97,-497.63C329.44,-499.92 334.46,-503.15 338.25,-507.69 351.12,-523.1 332.92,-582.68 346.25,-597.69 353.73,-606.12 364.65,-610.5 375.69,-612.62"/>
<polygon fill="#000000" fill-opacity="0.200000" stroke="#000000" stroke-width="2" stroke-opacity="0.200000" points="375.29,-614.69 381.52,-613.45 375.88,-610.53 375.29,-614.69"/>
</g>
<!-- src/hooks/useFetchUser.tsx -->
<g id="node23" class="node">
<title>src/hooks/useFetchUser.tsx</title>
<g id="a_node23"><a xlink:href="src/hooks/useFetchUser.tsx" xlink:title="useFetchUser.tsx">
<path fill="#bbfeff" stroke="black" d="M590.58,-137.57C590.58,-137.57 515.92,-137.57 515.92,-137.57 512.96,-137.57 510,-134.61 510,-131.65 510,-131.65 510,-125.73 510,-125.73 510,-122.77 512.96,-119.82 515.92,-119.82 515.92,-119.82 590.58,-119.82 590.58,-119.82 593.54,-119.82 596.5,-122.77 596.5,-125.73 596.5,-125.73 596.5,-131.65 596.5,-131.65 596.5,-134.61 593.54,-137.57 590.58,-137.57"/>
<text text-anchor="start" x="518" y="-125.02" font-family="Helvetica,sans-Serif" font-size="9.00">useFetchUser.tsx</text>
</a>
</g>
</g>
<!-- src/components/user/FriendProfile.tsx&#45;&gt;src/hooks/useFetchUser.tsx -->
<g id="edge29" class="edge">
<title>src/components/user/FriendProfile.tsx&#45;&gt;src/hooks/useFetchUser.tsx</title>
<path fill="none" stroke="#000000" stroke-width="2" stroke-opacity="0.200000" d="M323.93,-488.06C329.48,-485.74 334.53,-482.42 338.25,-477.69 356.47,-454.54 330.16,-237.37 346.25,-212.69 385.12,-153.07 423.71,-167.58 490.75,-143.69 494.03,-142.52 497.45,-141.41 500.91,-140.36"/>
<polygon fill="#000000" fill-opacity="0.200000" stroke="#000000" stroke-width="2" stroke-opacity="0.200000" points="501.46,-142.39 506.65,-138.72 500.31,-138.35 501.46,-142.39"/>
</g>
<!-- src/components/user/FriendProfile.tsx&#45;&gt;src/hooks/useRelationship.tsx -->
<g id="edge30" class="edge">
<title>src/components/user/FriendProfile.tsx&#45;&gt;src/hooks/useRelationship.tsx</title>
<path fill="none" stroke="#000000" stroke-width="2" stroke-opacity="0.200000" d="M323.85,-487.99C329.4,-485.68 334.48,-482.38 338.25,-477.69 349.06,-464.25 337.64,-337.63 346.25,-322.69 383.53,-258.01 466.1,-219.14 514.62,-201.02"/>
<polygon fill="#000000" fill-opacity="0.200000" stroke="#000000" stroke-width="2" stroke-opacity="0.200000" points="515.21,-203.04 520.13,-199.02 513.78,-199.09 515.21,-203.04"/>
</g>
<!-- src/components/user/UserProfileInfo.tsx -->
<g id="node25" class="node">
<title>src/components/user/UserProfileInfo.tsx</title>
<g id="a_node25"><a xlink:href="src/components/user/UserProfileInfo.tsx" xlink:title="UserProfileInfo.tsx">
<path fill="#bbfeff" stroke="black" d="M457.71,-486.57C457.71,-486.57 379.29,-486.57 379.29,-486.57 376.33,-486.57 373.38,-483.61 373.38,-480.65 373.38,-480.65 373.38,-474.73 373.38,-474.73 373.38,-471.77 376.33,-468.82 379.29,-468.82 379.29,-468.82 457.71,-468.82 457.71,-468.82 460.67,-468.82 463.62,-471.77 463.62,-474.73 463.62,-474.73 463.62,-480.65 463.62,-480.65 463.62,-483.61 460.67,-486.57 457.71,-486.57"/>
<text text-anchor="start" x="381.38" y="-474.02" font-family="Helvetica,sans-Serif" font-size="9.00">UserProfileInfo.tsx</text>
</a>
</g>
</g>
<!-- src/components/user/FriendProfile.tsx&#45;&gt;src/components/user/UserProfileInfo.tsx -->
<g id="edge33" class="edge">
<title>src/components/user/FriendProfile.tsx&#45;&gt;src/components/user/UserProfileInfo.tsx</title>
<path fill="none" stroke="#000000" stroke-width="2" stroke-opacity="0.200000" d="M323.7,-488.19C336.48,-486.76 350.81,-485.16 364.35,-483.64"/>
<polygon fill="#000000" fill-opacity="0.200000" stroke="#000000" stroke-width="2" stroke-opacity="0.200000" points="364.37,-485.75 370.1,-483 363.9,-481.58 364.37,-485.75"/>
</g>
<!-- src/hooks/useFetchUser.tsx&#45;&gt;src/configuration/axiosConfig.tsx -->
<g id="edge42" class="edge">
<title>src/hooks/useFetchUser.tsx&#45;&gt;src/configuration/axiosConfig.tsx</title>
<path fill="none" stroke="#000000" stroke-width="2" stroke-opacity="0.200000" d="M596.84,-136.39C603.35,-138.33 609.86,-140.73 615.75,-143.69 630.65,-151.19 645.05,-163.49 655.24,-173.33"/>
<polygon fill="#000000" fill-opacity="0.200000" stroke="#000000" stroke-width="2" stroke-opacity="0.200000" points="653.71,-174.77 659.44,-177.53 656.68,-171.8 653.71,-174.77"/>
</g>
<!-- src/hooks/useRelationship.tsx&#45;&gt;src/configuration/axiosConfig.tsx -->
<g id="edge43" class="edge">
<title>src/hooks/useRelationship.tsx&#45;&gt;src/configuration/axiosConfig.tsx</title>
<path fill="none" stroke="#000000" stroke-width="2" stroke-opacity="0.200000" d="M601.61,-188.69C608.63,-188.69 615.86,-188.69 622.87,-188.69"/>
<polygon fill="#000000" fill-opacity="0.200000" stroke="#000000" stroke-width="2" stroke-opacity="0.200000" points="622.57,-190.79 628.57,-188.69 622.57,-186.59 622.57,-190.79"/>
</g>
<!-- src/components/user/MyProfile.tsx&#45;&gt;src/components/news/NewsList.tsx -->
<g id="edge36" class="edge">
<title>src/components/user/MyProfile.tsx&#45;&gt;src/components/news/NewsList.tsx</title>
<path fill="none" stroke="#000000" stroke-width="2" stroke-opacity="0.200000" d="M316.77,-465.07C324.95,-467.28 332.89,-471.13 338.25,-477.69 355.16,-498.39 328.73,-577.51 346.25,-597.69 353.7,-606.28 364.72,-610.68 375.87,-612.78"/>
<polygon fill="#000000" fill-opacity="0.200000" stroke="#000000" stroke-width="2" stroke-opacity="0.200000" points="375.54,-614.86 381.77,-613.6 376.12,-610.7 375.54,-614.86"/>
</g>
<!-- src/components/user/MyProfile.tsx&#45;&gt;src/components/news/CreateNewsComponent.tsx -->
<g id="edge35" class="edge">
<title>src/components/user/MyProfile.tsx&#45;&gt;src/components/news/CreateNewsComponent.tsx</title>
<path fill="none" stroke="#000000" stroke-width="2" stroke-opacity="0.200000" d="M316.64,-465.17C324.82,-467.39 332.79,-471.21 338.25,-477.69 350.18,-491.87 334.55,-546.33 346.25,-560.69 348.8,-563.82 351.79,-566.52 355.08,-568.84"/>
<polygon fill="#000000" fill-opacity="0.200000" stroke="#000000" stroke-width="2" stroke-opacity="0.200000" points="353.83,-570.55 360.07,-571.8 355.97,-566.93 353.83,-570.55"/>
</g>
<!-- src/components/user/MyProfile.tsx&#45;&gt;src/hooks/useFetchUser.tsx -->
<g id="edge34" class="edge">
<title>src/components/user/MyProfile.tsx&#45;&gt;src/hooks/useFetchUser.tsx</title>
<path fill="none" stroke="#000000" stroke-width="2" stroke-opacity="0.200000" d="M316.66,-460.53C324.94,-458.33 332.96,-454.44 338.25,-447.69 358.35,-422.07 324.38,-178.82 346.25,-154.69 384.23,-112.79 453.03,-112.48 500.6,-118.52"/>
<polygon fill="#000000" fill-opacity="0.200000" stroke="#000000" stroke-width="2" stroke-opacity="0.200000" points="500.3,-120.6 506.53,-119.34 500.87,-116.44 500.3,-120.6"/>
</g>
<!-- src/components/user/MyProfile.tsx&#45;&gt;src/components/user/UserProfileInfo.tsx -->
<g id="edge37" class="edge">
<title>src/components/user/MyProfile.tsx&#45;&gt;src/components/user/UserProfileInfo.tsx</title>
<path fill="none" stroke="#000000" stroke-width="2" stroke-opacity="0.200000" d="M316.62,-466.4C330.94,-468 348.07,-469.92 364.11,-471.71"/>
<polygon fill="#000000" fill-opacity="0.200000" stroke="#000000" stroke-width="2" stroke-opacity="0.200000" points="363.67,-473.78 369.87,-472.36 364.14,-469.61 363.67,-473.78"/>
</g>
<!-- src/components/user/UserList.tsx&#45;&gt;src/configuration/axiosConfig.tsx -->
<g id="edge40" class="edge">
<title>src/components/user/UserList.tsx&#45;&gt;src/configuration/axiosConfig.tsx</title>
<path fill="none" stroke="#000000" stroke-width="2" stroke-opacity="0.200000" d="M314.44,-523.27C323.4,-525.03 332.35,-528.65 338.25,-535.69 358.12,-559.4 324.95,-652.25 346.25,-674.69 388.27,-718.95 440.29,-645.85 482.75,-689.69 498.72,-706.18 473.9,-777.1 490.75,-792.69 500.94,-802.12 605.5,-802.06 615.75,-792.69 660.12,-752.12 668.4,-303.1 669.67,-206.8"/>
<polygon fill="#000000" fill-opacity="0.200000" stroke="#000000" stroke-width="2" stroke-opacity="0.200000" points="671.77,-206.99 669.74,-200.97 667.57,-206.94 671.77,-206.99"/>
</g>
<!-- src/components/user/UserList.tsx&#45;&gt;src/components/user/UserCard.tsx -->
<g id="edge41" class="edge">
<title>src/components/user/UserList.tsx&#45;&gt;src/components/user/UserCard.tsx</title>
<path fill="none" stroke="#000000" stroke-width="2" stroke-opacity="0.200000" d="M314.59,-520.36C323.35,-518.21 332.14,-514.39 338.25,-507.69 351.94,-492.69 333.57,-478.56 346.25,-462.69 353.59,-453.5 364.26,-447.09 375.12,-442.62"/>
<polygon fill="#000000" fill-opacity="0.200000" stroke="#000000" stroke-width="2" stroke-opacity="0.200000" points="375.65,-444.66 380.56,-440.62 374.2,-440.72 375.65,-444.66"/>
</g>
<!-- src/index.tsx -->
<g id="node28" class="node">
<title>src/index.tsx</title>
<g id="a_node28"><a xlink:href="src/index.tsx" xlink:title="index.tsx">
<path fill="#bbfeff" stroke="black" d="M64.08,-763.57C64.08,-763.57 21.92,-763.57 21.92,-763.57 18.96,-763.57 16,-760.61 16,-757.65 16,-757.65 16,-751.73 16,-751.73 16,-748.77 18.96,-745.82 21.92,-745.82 21.92,-745.82 64.08,-745.82 64.08,-745.82 67.04,-745.82 70,-748.77 70,-751.73 70,-751.73 70,-757.65 70,-757.65 70,-760.61 67.04,-763.57 64.08,-763.57"/>
<text text-anchor="start" x="25" y="-751.02" font-family="Helvetica,sans-Serif" font-size="9.00">index.tsx</text>
</a>
</g>
</g>
<!-- src/index.tsx&#45;&gt;src/App.tsx -->
<g id="edge44" class="edge">
<title>src/index.tsx&#45;&gt;src/App.tsx</title>
<path fill="none" stroke="#000000" stroke-width="2" stroke-opacity="0.200000" d="M70.44,-754.69C71.58,-754.69 72.74,-754.69 73.9,-754.69"/>
<polygon fill="#000000" fill-opacity="0.200000" stroke="#000000" stroke-width="2" stroke-opacity="0.200000" points="73.77,-756.79 79.77,-754.69 73.77,-752.59 73.77,-756.79"/>
</g>
<!-- src/routes/ProtectedRoute.tsx&#45;&gt;src/provider/authProvider.tsx -->
<g id="edge46" class="edge">
<title>src/routes/ProtectedRoute.tsx&#45;&gt;src/provider/authProvider.tsx</title>
<path fill="none" stroke="#000000" stroke-width="2" stroke-opacity="0.200000" d="M329.39,-754.69C377.66,-754.69 453.35,-754.69 502.88,-754.69"/>
<polygon fill="#000000" fill-opacity="0.200000" stroke="#000000" stroke-width="2" stroke-opacity="0.200000" points="502.79,-756.79 508.79,-754.69 502.79,-752.59 502.79,-756.79"/>
</g>
</g>
</svg>
